<?xml version="1.0" standalone="no"?>
<!DOCTYPE svg PUBLIC "-//W3C//DTD SVG 20010904//EN"
 "http://www.w3.org/TR/2001/REC-SVG-20010904/DTD/svg10.dtd">
<svg version="1.0" xmlns="http://www.w3.org/2000/svg"
 width="572.000000pt" height="243.000000pt" viewBox="0 0 572.000000 243.000000"
 preserveAspectRatio="xMidYMid meet">

<g transform="translate(0.000000,243.000000) scale(0.100000,-0.100000)"
fill="#000000" stroke="none">
<path d="M1330 2193 c0 -3 11 -26 25 -50 17 -28 40 -50 67 -63 23 -11 43 -20
45 -20 1 0 -10 21 -25 48 -32 54 -112 115 -112 85z"/>
<path d="M1225 2160 c-16 -7 -13 -9 17 -9 20 -1 49 -6 65 -11 l28 -10 -24 20
c-24 21 -53 24 -86 10z"/>
<path d="M1020 2137 l-25 -11 31 -4 c17 -1 47 4 65 12 l34 14 -40 1 c-22 0
-51 -5 -65 -12z"/>
<path d="M1490 2068 c11 -29 28 -59 37 -66 42 -30 95 -62 91 -55 -2 4 -16 33
-30 64 -18 38 -38 63 -67 82 -22 15 -43 27 -46 27 -3 0 4 -24 15 -52z"/>
<path d="M991 2092 c-20 -3 -131 -59 -131 -66 0 -1 35 1 77 5 72 7 121 28 130
55 3 10 -37 13 -76 6z"/>
<path d="M1145 2030 l-17 -50 -56 0 -56 0 42 -31 c47 -34 48 -39 27 -98 -8
-22 -11 -41 -8 -41 3 0 20 10 37 23 50 38 51 38 92 7 21 -16 42 -30 46 -30 3
0 -1 23 -10 51 -18 56 -19 54 49 101 24 17 24 17 -33 17 l-56 1 -17 50 c-9 28
-18 50 -20 50 -2 0 -11 -22 -20 -50z"/>
<path d="M4714 2010 c-153 -23 -283 -103 -368 -228 -68 -99 -89 -166 -94 -297
-4 -99 -1 -118 22 -189 55 -163 172 -288 326 -347 78 -31 236 -38 315 -14 202
58 348 213 390 412 20 93 19 166 -5 257 -24 96 -60 164 -125 235 -117 129
-298 196 -461 171z m169 -260 c73 -27 130 -79 164 -148 38 -78 40 -192 4 -266
-54 -109 -151 -171 -266 -171 -170 1 -296 129 -296 300 0 89 26 152 91 217 86
86 192 110 303 68z"/>
<path d="M1635 1966 c7 -24 20 -57 29 -72 18 -36 133 -147 122 -119 -4 11 -12
42 -17 69 -12 66 -41 110 -94 140 -24 14 -46 26 -48 26 -3 0 1 -20 8 -44z"/>
<path d="M880 1994 c-28 -9 -170 -79 -170 -85 0 -3 28 -1 63 4 34 5 77 11 95
13 20 3 49 20 70 39 l37 34 -40 0 c-22 0 -47 -3 -55 -5z"/>
<path d="M3960 1638 c0 -211 -4 -368 -10 -390 -15 -53 -51 -78 -114 -78 -77 0
-115 35 -131 123 l-7 37 -123 0 -123 0 -12 67 c-31 178 -179 322 -352 341
-192 22 -362 -69 -441 -236 -29 -62 -32 -75 -32 -167 1 -139 24 -196 119 -291
96 -96 152 -118 296 -119 97 0 110 2 172 32 37 17 87 51 113 74 46 42 102 125
92 135 -2 3 -53 14 -112 24 l-107 20 -32 -27 c-84 -70 -186 -69 -261 4 -65 64
-68 63 255 63 l290 0 0 22 c0 36 12 11 21 -43 12 -73 45 -136 104 -195 73 -73
140 -98 270 -98 94 -1 105 1 167 32 81 40 148 110 180 190 22 55 23 68 26 445
l3 387 -125 0 -126 0 0 -352z m-836 -112 c37 -16 76 -60 76 -88 0 -17 -9 -18
-162 -16 -108 2 -163 7 -165 14 -6 17 47 75 82 90 40 17 127 18 169 0z"/>
<path d="M713 1872 c-34 -18 -167 -142 -160 -149 3 -2 20 5 38 15 19 11 55 25
80 32 34 9 61 26 100 66 l53 54 -39 0 c-22 -1 -54 -9 -72 -18z"/>
<path d="M1813 1777 c6 -61 20 -98 74 -191 7 -12 13 -29 13 -38 0 -10 6 -18
13 -18 10 0 14 21 16 81 2 99 -18 149 -81 199 l-41 34 6 -67z"/>
<path d="M1171 1607 c-1 -139 -4 -169 -16 -173 -11 -4 -15 -21 -15 -55 0 -48
0 -49 31 -49 l32 0 -7 85 c-6 69 -4 89 8 107 23 32 20 91 -8 178 l-24 75 -1
-168z"/>
<path d="M600 1709 c-74 -41 -96 -63 -131 -135 -35 -74 -36 -84 -6 -57 12 11
40 30 62 41 22 11 50 31 61 44 23 24 78 127 72 133 -2 2 -28 -10 -58 -26z"/>
<path d="M1971 1600 c-25 -55 -27 -138 -5 -223 8 -33 13 -69 11 -79 -3 -11 0
-18 9 -18 8 0 14 9 14 19 0 11 10 41 21 68 31 68 29 152 -4 223 l-25 55 -21
-45z"/>
<path d="M535 1528 c-86 -44 -122 -94 -145 -199 -9 -43 -13 -79 -8 -79 4 0 8
5 8 11 0 5 33 45 73 87 59 62 78 89 95 140 11 34 20 62 19 62 -1 -1 -20 -10
-42 -22z"/>
<path d="M753 1384 c4 -21 7 -140 7 -264 l2 -225 -30 -9 -29 -8 -1 -87 c0 -56
4 -96 14 -115 7 -16 11 -39 8 -52 -6 -24 -5 -24 65 -24 l71 0 -15 24 -16 24
50 7 c45 6 57 3 133 -34 46 -23 86 -41 88 -41 3 0 4 38 2 85 l-3 85 -32 0
c-71 1 -111 18 -153 65 -26 29 -54 49 -77 56 -43 12 -42 0 -5 203 24 130 19
174 -28 267 -41 83 -60 98 -51 43z"/>
<path d="M1562 1408 c-25 -32 -71 -138 -77 -180 -5 -30 0 -82 13 -154 37 -203
38 -191 -5 -203 -23 -7 -51 -27 -77 -56 -42 -47 -82 -64 -153 -65 l-32 0 -3
-85 c-2 -47 0 -85 4 -85 4 0 44 18 88 41 74 37 86 40 131 34 l50 -7 -16 -24
-15 -24 71 0 c70 0 71 0 65 24 -3 13 1 36 8 52 10 19 14 59 14 115 l-1 87 -29
8 -30 9 2 225 c0 124 3 242 7 263 6 39 2 45 -15 25z"/>
<path d="M2059 1335 c-60 -96 -62 -104 -69 -245 -3 -74 -4 -139 -2 -144 3 -4
16 12 31 37 14 25 39 66 55 92 35 57 45 150 24 239 l-14 59 -25 -38z"/>
<path d="M463 1302 c-74 -67 -86 -98 -90 -217 -3 -97 -2 -99 12 -62 8 21 34
63 58 95 25 31 49 73 55 92 11 37 26 140 20 140 -1 0 -26 -22 -55 -48z"/>
<path d="M1097 1290 c3 -11 9 -20 15 -20 5 0 4 9 -2 20 -6 11 -12 20 -14 20
-2 0 -2 -9 1 -20z"/>
<path d="M1161 1294 c0 -11 3 -14 6 -6 3 7 2 16 -1 19 -3 4 -6 -2 -5 -13z"/>
<path d="M1223 1295 c-3 -9 -3 -18 -1 -21 3 -3 8 4 11 16 6 23 -1 27 -10 5z"/>
<path d="M1040 1278 c0 -9 7 -19 16 -22 15 -6 15 -4 3 11 -7 10 -15 20 -16 22
-2 2 -3 -3 -3 -11z"/>
<path d="M1273 1270 c-11 -16 -10 -18 2 -14 8 4 15 12 15 20 0 19 -3 18 -17
-6z"/>
<path d="M1162 1240 c0 -14 2 -19 5 -12 2 6 2 18 0 25 -3 6 -5 1 -5 -13z"/>
<path d="M1111 1245 c1 -19 18 -51 18 -35 0 8 -4 22 -9 30 -5 8 -9 11 -9 5z"/>
<path d="M1206 1235 c-3 -9 -6 -22 -5 -28 0 -7 5 -1 10 12 5 13 8 26 5 28 -2
2 -6 -3 -10 -12z"/>
<path d="M1000 1228 c6 -8 5 -17 -2 -27 -7 -9 0 -5 15 8 27 24 39 43 14 22 -9
-7 -18 -7 -25 -1 -9 7 -9 7 -2 -2z"/>
<path d="M1309 1218 c14 -16 27 -28 30 -28 3 0 0 5 -7 12 -9 9 -9 15 1 27 10
14 10 14 -4 4 -12 -10 -18 -10 -30 0 -7 6 -3 0 10 -15z"/>
<path d="M1071 1225 c0 -5 6 -19 14 -29 8 -11 15 -15 15 -10 0 6 -7 19 -15 30
-8 10 -14 15 -14 9z"/>
<path d="M1241 1212 c-17 -31 -13 -40 5 -14 9 13 14 26 11 29 -3 2 -10 -4 -16
-15z"/>
<path d="M950 1190 c0 -5 5 -10 11 -10 5 0 7 5 4 10 -3 6 -8 10 -11 10 -2 0
-4 -4 -4 -10z"/>
<path d="M1050 1175 c13 -14 25 -25 27 -25 9 0 -33 49 -41 50 -5 0 1 -11 14
-25z"/>
<path d="M1269 1173 l-24 -28 28 24 c25 23 32 31 24 31 -2 0 -14 -12 -28 -27z"/>
<path d="M1365 1190 c-3 -5 -1 -10 4 -10 6 0 11 5 11 10 0 6 -2 10 -4 10 -3 0
-8 -4 -11 -10z"/>
<path d="M1001 1156 c2 -2 15 -9 29 -15 24 -11 24 -11 6 3 -16 13 -49 24 -35
12z"/>
<path d="M1294 1144 c-18 -14 -18 -14 6 -3 31 14 36 19 24 19 -6 0 -19 -7 -30
-16z"/>
<path d="M470 1108 c-79 -95 -94 -162 -67 -292 14 -68 37 -88 37 -32 0 22 13
62 32 99 29 56 33 71 35 165 1 56 2 102 0 102 -1 0 -18 -19 -37 -42z"/>
<path d="M960 1141 c0 -8 -7 -10 -20 -6 -11 3 -20 2 -20 -3 0 -17 38 -21 45
-4 3 8 3 17 0 20 -3 3 -5 0 -5 -7z"/>
<path d="M1364 1137 c3 -10 6 -20 6 -22 0 -2 9 -1 20 2 11 3 20 10 20 15 0 6
-8 7 -17 4 -9 -4 -21 -1 -26 6 -6 9 -7 8 -3 -5z"/>
<path d="M995 1110 c11 -5 27 -9 35 -9 9 0 8 4 -5 9 -11 5 -27 9 -35 9 -9 0
-8 -4 5 -9z"/>
<path d="M1305 1110 c-13 -5 -14 -9 -5 -9 8 0 24 4 35 9 13 5 14 9 5 9 -8 0
-24 -4 -35 -9z"/>
<path d="M910 1068 c0 -4 7 -8 15 -8 8 0 15 4 15 8 0 5 -7 9 -15 9 -8 0 -15
-4 -15 -9z"/>
<path d="M980 1069 c0 -5 9 -9 20 -9 11 0 20 2 20 4 0 2 -9 6 -20 9 -11 3 -20
1 -20 -4z"/>
<path d="M1325 1070 c-19 -8 -19 -9 3 -9 12 -1 22 4 22 9 0 6 -1 10 -2 9 -2 0
-12 -4 -23 -9z"/>
<path d="M1390 1068 c0 -4 7 -8 15 -8 8 0 15 4 15 8 0 5 -7 9 -15 9 -8 0 -15
-4 -15 -9z"/>
<path d="M986 1021 c-4 -5 3 -7 14 -4 23 6 26 13 6 13 -8 0 -17 -4 -20 -9z"/>
<path d="M1310 1026 c0 -2 9 -6 20 -9 11 -3 18 -1 14 4 -5 9 -34 13 -34 5z"/>
<path d="M2063 974 c-56 -57 -96 -127 -107 -185 -4 -21 -18 -54 -31 -74 -14
-20 -23 -40 -20 -45 5 -8 36 11 132 85 46 35 81 116 89 203 4 41 3 72 -2 71
-5 -1 -32 -25 -61 -55z"/>
<path d="M938 1013 c-10 -2 -18 -9 -18 -14 0 -6 8 -5 20 1 11 6 20 13 20 15 0
3 -1 4 -2 4 -2 -1 -11 -3 -20 -6z"/>
<path d="M1370 1014 c0 -2 9 -8 20 -14 11 -6 20 -7 20 -2 0 6 -9 12 -20 15
-11 3 -20 3 -20 1z"/>
<path d="M1014 984 c-18 -14 -18 -14 6 -3 31 14 36 19 24 19 -6 0 -19 -7 -30
-16z"/>
<path d="M1281 996 c2 -2 15 -9 29 -15 24 -11 24 -11 6 3 -16 13 -49 24 -35
12z"/>
<path d="M1051 959 c-13 -11 -22 -22 -19 -24 2 -3 15 6 28 20 28 30 24 32 -9
4z"/>
<path d="M1269 957 c26 -28 31 -32 31 -19 0 4 -13 16 -28 26 l-27 19 24 -26z"/>
<path d="M980 956 c0 -2 8 -10 18 -17 15 -13 16 -12 3 4 -13 16 -21 21 -21 13z"/>
<path d="M1329 943 c-13 -16 -12 -17 4 -4 16 13 21 21 13 21 -2 0 -10 -8 -17
-17z"/>
<path d="M1080 929 c-7 -11 -10 -23 -7 -25 2 -2 9 7 15 21 14 30 7 33 -8 4z"/>
<path d="M1241 930 c14 -31 19 -36 19 -24 0 6 -7 19 -16 30 -14 18 -14 18 -3
-6z"/>
<path d="M1121 923 c-1 -6 -4 -20 -7 -30 -5 -17 -5 -17 6 0 6 10 9 23 6 30 -3
9 -5 9 -5 0z"/>
<path d="M1201 920 c0 -8 4 -22 9 -30 12 -18 12 -2 0 25 -6 13 -9 15 -9 5z"/>
<path d="M486 847 c-37 -95 -32 -151 21 -245 21 -37 41 -75 45 -84 11 -27 31
-23 21 5 -4 12 -7 74 -5 137 3 108 2 120 -25 187 l-29 72 -28 -72z"/>
<path d="M994 905 c-10 -8 -14 -15 -8 -15 6 0 17 7 24 15 16 19 9 19 -16 0z"/>
<path d="M1162 900 c0 -14 2 -19 5 -12 2 6 2 18 0 25 -3 6 -5 1 -5 -13z"/>
<path d="M1322 904 c10 -10 20 -15 24 -12 3 4 -5 12 -18 18 -22 12 -22 12 -6
-6z"/>
<path d="M1038 899 c7 -9 10 -25 6 -35 -5 -18 -5 -18 6 0 10 15 9 21 -6 35
-16 14 -17 14 -6 0z"/>
<path d="M1270 889 c-14 -11 -20 -18 -13 -15 6 4 17 -2 23 -11 11 -17 11 -17
6 1 -4 10 -1 25 5 32 16 20 8 17 -21 -7z"/>
<path d="M1101 834 c0 -11 3 -14 6 -6 3 7 2 16 -1 19 -3 4 -6 -2 -5 -13z"/>
<path d="M1221 834 c0 -11 3 -14 6 -6 3 7 2 16 -1 19 -3 4 -6 -2 -5 -13z"/>
<path d="M1140 671 c0 -89 -4 -152 -10 -156 -14 -9 -13 -48 2 -63 16 -16 55
-15 65 1 12 19 3 351 -11 359 -6 4 -19 8 -28 8 -16 0 -18 -14 -18 -149z"/>
<path d="M2978 683 c-3 -80 -5 -88 -23 -88 -13 0 -21 8 -23 23 -5 32 -42 30
-42 -3 0 -53 62 -82 108 -49 20 14 22 23 22 110 0 87 -2 94 -20 94 -17 0 -19
-8 -22 -87z"/>
<path d="M3900 660 c0 -103 1 -110 20 -110 19 0 20 7 20 110 0 103 -1 110 -20
110 -19 0 -20 -7 -20 -110z"/>
<path d="M4113 760 c-50 -21 -68 -110 -34 -167 33 -52 116 -56 162 -7 34 36
33 115 -3 150 -28 28 -89 40 -125 24z m89 -47 c23 -20 24 -80 1 -105 -17 -19
-49 -23 -70 -10 -22 14 -33 60 -22 89 17 46 57 57 91 26z"/>
<path d="M4323 763 c-7 -2 -13 -16 -13 -29 0 -15 -6 -24 -15 -24 -8 0 -15 -7
-15 -15 0 -8 7 -15 15 -15 12 0 15 -14 15 -65 0 -58 2 -65 20 -65 18 0 20 7
20 65 0 37 4 65 10 65 14 0 12 27 -2 33 -10 4 -10 7 0 18 27 29 5 49 -35 32z"/>
<path d="M4422 758 c-7 -7 -12 -20 -12 -30 0 -10 -7 -18 -15 -18 -8 0 -15 -7
-15 -15 0 -8 7 -15 15 -15 12 0 15 -14 15 -65 0 -58 2 -65 20 -65 18 0 20 7
20 65 0 51 3 65 15 65 8 0 15 7 15 15 0 8 -7 15 -15 15 -8 0 -15 7 -15 15 0 8
5 15 10 15 6 0 10 7 10 15 0 18 -31 20 -48 3z"/>
<path d="M4500 750 c0 -13 7 -20 20 -20 13 0 20 7 20 20 0 13 -7 20 -20 20
-13 0 -20 -7 -20 -20z"/>
<path d="M4750 750 c0 -13 7 -20 20 -20 13 0 20 7 20 20 0 13 -7 20 -20 20
-13 0 -20 -7 -20 -20z"/>
<path d="M5000 660 c0 -103 1 -110 20 -110 19 0 20 7 20 110 0 103 -1 110 -20
110 -19 0 -20 -7 -20 -110z"/>
<path d="M2085 733 c-11 -8 -47 -28 -80 -45 -42 -20 -85 -56 -142 -116 -46
-47 -81 -87 -79 -90 2 -2 40 6 85 18 124 34 208 104 232 193 13 49 9 59 -16
40z"/>
<path d="M3100 703 c-26 -9 -40 -35 -40 -73 0 -49 18 -70 66 -77 57 -7 89 20
89 77 0 63 -52 96 -115 73z m68 -67 c4 -36 -10 -50 -42 -42 -21 5 -26 13 -26
35 0 31 12 41 45 38 14 -1 21 -11 23 -31z"/>
<path d="M3250 646 c0 -45 5 -69 16 -80 18 -19 55 -21 72 -4 9 9 12 9 12 0 0
-7 9 -12 20 -12 18 0 20 7 20 80 0 73 -2 80 -20 80 -16 0 -19 -8 -22 -62 -3
-60 -4 -63 -28 -63 -24 0 -25 3 -28 63 -3 54 -6 62 -22 62 -18 0 -20 -7 -20
-64z"/>
<path d="M3430 630 c0 -73 2 -80 19 -80 17 0 20 8 23 53 2 43 7 54 26 62 12 5
22 18 22 27 0 21 -20 24 -38 6 -9 -9 -12 -9 -12 0 0 7 -9 12 -20 12 -18 0 -20
-7 -20 -80z"/>
<path d="M3612 701 c-7 -4 -24 -6 -38 -3 -24 4 -24 3 -24 -72 0 -69 2 -76 20
-76 18 0 20 7 20 54 0 56 17 83 45 72 11 -4 15 -21 15 -66 0 -53 2 -60 20 -60
18 0 20 7 20 70 0 58 -3 71 -19 80 -24 12 -41 13 -59 1z"/>
<path d="M3739 689 l-24 -24 24 -3 c13 -2 27 2 31 8 9 14 41 10 41 -5 0 -5
-14 -14 -33 -20 -48 -15 -58 -23 -58 -51 0 -33 40 -52 75 -36 15 7 25 8 25 2
0 -6 10 -10 23 -10 21 0 22 2 17 69 -3 38 -8 72 -12 76 -3 4 -24 9 -46 12 -33
4 -44 1 -63 -18z m81 -78 c0 -17 -30 -40 -45 -35 -16 6 -20 26 -8 37 10 10 53
8 53 -2z"/>
<path d="M4500 630 c0 -73 2 -80 20 -80 18 0 20 7 20 80 0 73 -2 80 -20 80
-18 0 -20 -7 -20 -80z"/>
<path d="M4595 685 c-66 -65 17 -173 92 -120 11 8 23 24 26 35 4 16 0 20 -18
20 -13 0 -25 -7 -29 -15 -8 -21 -33 -19 -46 5 -20 37 18 78 47 49 6 -6 21 -9
34 -7 l24 3 -27 28 c-34 34 -71 35 -103 2z"/>
<path d="M4750 630 c0 -73 2 -80 20 -80 18 0 20 7 20 80 0 73 -2 80 -20 80
-18 0 -20 -7 -20 -80z"/>
<path d="M4860 703 c-40 -14 -56 -96 -24 -127 33 -34 114 -27 128 10 7 18 -26
19 -53 2 -15 -9 -23 -9 -35 1 -28 23 -18 31 39 31 49 0 55 2 55 20 0 45 -61
80 -110 63z m58 -40 c2 -9 -7 -13 -27 -13 -30 0 -39 9 -24 24 11 10 46 3 51
-11z"/>
<path d="M598 618 c4 -91 33 -148 107 -212 57 -49 105 -66 65 -24 -11 12 -25
40 -31 63 -31 111 -44 141 -88 190 -25 30 -48 54 -51 54 -3 1 -4 -32 -2 -71z"/>
<path d="M752 483 c31 -115 77 -157 208 -194 37 -10 140 -50 229 -89 101 -45
171 -70 188 -68 21 2 11 10 -55 37 -45 19 -82 38 -82 42 0 3 24 15 53 27 50
19 59 19 118 6 75 -16 190 -18 239 -4 43 12 153 81 125 78 -11 -1 -58 1 -105
6 -66 6 -99 4 -150 -9 -36 -9 -100 -22 -143 -31 -43 -8 -96 -23 -117 -34 -51
-26 -57 -26 -146 12 -60 25 -85 43 -120 83 -54 62 -125 118 -193 151 -28 13
-53 24 -55 24 -2 0 0 -17 6 -37z"/>
<path d="M1770 451 c-53 -16 -170 -86 -159 -94 2 -2 60 -1 129 3 128 6 142 10
212 60 l37 27 -52 7 c-67 8 -135 6 -167 -3z"/>
<path d="M2360 300 c0 -103 1 -110 20 -110 17 0 20 7 20 41 l0 40 37 -3 c34
-3 38 -6 46 -40 7 -30 14 -38 31 -38 19 0 22 4 18 38 -2 20 -9 43 -15 50 -7 9
-7 16 1 24 7 7 12 27 12 44 0 47 -29 64 -107 64 l-63 0 0 -110z m125 40 c0
-22 -5 -25 -42 -28 -42 -3 -43 -2 -43 28 0 30 1 31 43 28 37 -3 42 -6 42 -28z"/>
<path d="M2630 390 c-8 -15 -8 -20 1 -20 6 0 22 9 36 20 l26 20 -26 0 c-16 0
-31 -8 -37 -20z"/>
<path d="M3290 300 c0 -103 1 -110 20 -110 19 0 20 7 20 110 0 103 -1 110 -20
110 -19 0 -20 -7 -20 -110z"/>
<path d="M3380 390 c0 -13 7 -20 20 -20 13 0 20 7 20 20 0 13 -7 20 -20 20
-13 0 -20 -7 -20 -20z"/>
<path d="M4510 300 l0 -110 56 0 c66 0 89 10 109 50 25 49 20 107 -14 141 -26
26 -36 29 -90 29 l-61 0 0 -110z m120 55 c16 -19 15 -92 -1 -111 -6 -8 -27
-14 -45 -14 l-34 0 0 70 0 70 34 0 c18 0 39 -7 46 -15z"/>
<path d="M4730 390 c0 -13 7 -20 20 -20 13 0 20 7 20 20 0 13 -7 20 -20 20
-13 0 -20 -7 -20 -20z"/>
<path d="M4810 390 c0 -13 7 -20 20 -20 13 0 20 7 20 20 0 13 -7 20 -20 20
-13 0 -20 -7 -20 -20z"/>
<path d="M5540 390 c0 -13 7 -20 20 -20 13 0 20 7 20 20 0 13 -7 20 -20 20
-13 0 -20 -7 -20 -20z"/>
<path d="M3100 295 c0 -98 1 -105 20 -105 11 0 20 4 20 10 0 6 10 5 25 -2 71
-32 127 71 69 128 -21 22 -31 25 -60 20 -33 -7 -34 -6 -34 24 0 23 -4 30 -20
30 -19 0 -20 -7 -20 -105z m99 11 c19 -23 10 -80 -13 -85 -38 -7 -60 53 -30
83 19 20 28 20 43 2z"/>
<path d="M4180 365 c0 -33 -2 -35 -21 -25 -32 18 -69 4 -84 -33 -28 -68 16
-132 76 -110 16 6 29 7 29 2 0 -5 9 -9 20 -9 19 0 20 7 20 105 0 98 -1 105
-20 105 -16 0 -20 -7 -20 -35z m-6 -77 c15 -25 -4 -53 -35 -53 -25 0 -37 30
-25 61 8 20 46 14 60 -8z"/>
<path d="M4890 295 c0 -98 1 -105 20 -105 11 0 20 5 20 12 0 9 3 9 12 0 37
-37 98 5 98 68 0 63 -61 105 -98 68 -9 -9 -12 -4 -12 25 0 30 -4 37 -20 37
-19 0 -20 -7 -20 -105z m100 4 c15 -26 9 -59 -12 -72 -23 -15 -48 8 -48 42 0
48 40 68 60 30z"/>
<path d="M5450 370 c0 -11 -7 -20 -15 -20 -8 0 -15 -7 -15 -15 0 -8 7 -15 15
-15 10 0 15 -16 17 -62 3 -60 4 -63 31 -66 19 -2 27 1 27 12 0 9 -4 16 -10 16
-5 0 -10 23 -10 50 0 28 5 50 10 50 6 0 10 7 10 15 0 8 -4 15 -10 15 -5 0 -10
9 -10 20 0 13 -7 20 -20 20 -13 0 -20 -7 -20 -20z"/>
<path d="M2586 327 c-70 -70 21 -178 102 -121 12 8 22 19 22 25 0 12 -37 12
-45 -1 -11 -17 -44 -11 -55 10 -10 19 -8 20 45 20 51 0 55 2 55 23 0 35 -21
57 -62 63 -30 5 -41 2 -62 -19z m82 -24 c2 -9 -7 -13 -27 -13 -30 0 -39 9 -24
24 11 10 46 3 51 -11z"/>
<path d="M2740 245 c0 -98 1 -105 20 -105 16 0 20 7 20 37 0 29 3 34 12 25 37
-37 98 5 98 68 0 63 -61 105 -98 68 -9 -9 -12 -9 -12 0 0 7 -9 12 -20 12 -19
0 -20 -7 -20 -105z m99 71 c17 -20 10 -67 -11 -79 -23 -15 -48 8 -48 42 0 45
35 66 59 37z"/>
<path d="M2920 292 c0 -87 34 -122 91 -92 13 7 19 7 19 0 0 -5 9 -10 20 -10
18 0 20 7 20 80 0 73 -2 80 -20 80 -17 0 -20 -7 -20 -48 0 -55 -19 -88 -44
-79 -12 5 -16 20 -16 67 0 57 -1 60 -25 60 -24 0 -25 -3 -25 -58z"/>
<path d="M3380 270 c0 -73 2 -80 20 -80 18 0 20 7 20 80 0 73 -2 80 -20 80
-18 0 -20 -7 -20 -80z"/>
<path d="M3478 340 c-25 -15 -41 -72 -29 -104 14 -36 53 -53 86 -38 24 11 25
11 25 -28 0 -33 3 -40 20 -40 19 0 20 7 20 105 l0 105 -27 0 c-16 -1 -39 1
-53 5 -14 3 -33 1 -42 -5z m76 -52 c15 -25 -4 -53 -35 -53 -25 0 -37 30 -25
61 8 20 46 14 60 -8z"/>
<path d="M3640 286 c0 -45 5 -69 16 -80 18 -19 55 -21 72 -4 9 9 12 9 12 0 0
-7 9 -12 20 -12 18 0 20 7 20 80 0 73 -2 80 -20 80 -16 0 -19 -8 -22 -62 -3
-60 -4 -63 -28 -63 -24 0 -25 3 -28 63 -3 54 -6 62 -22 62 -18 0 -20 -7 -20
-64z"/>
<path d="M3836 327 c-70 -70 21 -178 102 -121 12 8 22 19 22 25 0 12 -37 12
-45 -1 -11 -17 -44 -11 -55 10 -10 19 -8 20 45 20 51 0 55 2 55 23 0 35 -21
57 -62 63 -30 5 -41 2 -62 -19z m82 -24 c2 -9 -7 -13 -27 -13 -30 0 -39 9 -24
24 11 10 46 3 51 -11z"/>
<path d="M4266 327 c-70 -70 21 -178 102 -121 12 8 22 19 22 25 0 12 -37 12
-45 -1 -11 -17 -44 -11 -55 10 -10 19 -8 20 45 20 51 0 55 2 55 23 0 35 -21
57 -62 63 -30 5 -41 2 -62 -19z m82 -24 c2 -9 -7 -13 -27 -13 -30 0 -39 9 -24
24 11 10 46 3 51 -11z"/>
<path d="M4730 261 c0 -50 -4 -93 -10 -96 -17 -10 -11 -35 8 -35 35 0 42 21
42 122 0 91 -1 98 -20 98 -19 0 -20 -7 -20 -89z"/>
<path d="M4810 270 c0 -73 2 -80 20 -80 18 0 20 7 20 80 0 73 -2 80 -20 80
-18 0 -20 -7 -20 -80z"/>
<path d="M5110 343 c-26 -9 -40 -35 -40 -73 0 -49 18 -70 66 -77 57 -7 89 20
89 77 0 63 -52 96 -115 73z m68 -67 c4 -36 -10 -50 -42 -42 -21 5 -26 13 -26
35 0 31 12 41 45 38 14 -1 21 -11 23 -31z"/>
<path d="M5250 292 c0 -87 34 -122 91 -92 13 7 19 7 19 0 0 -5 9 -10 20 -10
18 0 20 7 20 80 0 73 -2 80 -20 80 -17 0 -20 -7 -20 -48 0 -55 -19 -88 -44
-79 -12 5 -16 20 -16 67 0 57 -1 60 -25 60 -24 0 -25 -3 -25 -58z"/>
<path d="M5540 270 c0 -73 2 -80 20 -80 18 0 20 7 20 80 0 73 -2 80 -20 80
-18 0 -20 -7 -20 -80z"/>
<path d="M1055 160 c-56 -27 -58 -29 -28 -29 33 -1 123 36 123 51 0 15 -34 7
-95 -22z"/>
</g>
</svg>
